<svg xmlns="http://www.w3.org/2000/svg" width="75.551" height="89.034" viewBox="0 0 75.551 89.034"><g transform="translate(-33.815 -58.346)"><g transform="translate(0 0.15)"><path d="M169.669,202.865a1.792,1.792,0,0,0,.957-1.238c.6-10.3-7.9-24.033-10.967-28.618A19.151,19.151,0,0,0,152.578,178s-4.424,2.969-5.993,17.394C154.859,206.111,165.141,204.359,169.669,202.865Z" transform="translate(-96.1 -113.475)" fill="#24aabb"/><path d="M170.752,182.036,157.2,178.727a6.044,6.044,0,0,0-4.23-4.614c-2.8-.982-12.455-6.53-21.954-4.571,3.591,5.466,11.58,18.94,10.948,29.716a4.745,4.745,0,0,1-3.06,3.98,25.058,25.058,0,0,1-7.746,1.235,22.475,22.475,0,0,1-16.665-7.33c-.109,1.848-.172,3.848-.183,6.011-.062,11.158-14.235,21.737-14.235,21.737L98.183,228.8a51.211,51.211,0,0,0,17.391,20.647,33.1,33.1,0,0,1,3.224-12.641,27.365,27.365,0,0,1,9.14-10.665c.451-12.3,4.443-15.892,7.773-16.714a3.5,3.5,0,0,1,2.949.6,4.257,4.257,0,0,1,1.649,3.186,10.248,10.248,0,0,0,3.051,6.548,30.037,30.037,0,0,1,4.286.705l.124-1.16,1.032-10.019a4.007,4.007,0,0,1,3.377-3.358c6.389-.931,20.623-4.715,21.548-20.093A3.98,3.98,0,0,0,170.752,182.036Zm-21.119,3.572a1.731,1.731,0,1,1,1.731-1.731A1.731,1.731,0,0,1,149.632,185.608Z" transform="translate(-64.368 -110.93)" fill="#24aabb"/><path d="M195.428,314.084c-.512-4.36-6.667-7.952-14.619-8.463a12.781,12.781,0,0,1-4.506-8.849c-.046-.848-.681-1.691-1.5-1.488-2.125.523-5.733,3.251-5.913,15.71,0,0-11.558,5.831-12.393,22.641a50.527,50.527,0,0,0,25.257,7.214l-.1-2.408a2.254,2.254,0,0,1,1.371-2.076l9.844-3.692s4.617.259,6.537-3.207a23.606,23.606,0,0,1,2.539-3.755,1.57,1.57,0,0,0-.073-2.164C199.855,321.606,195.811,317.342,195.428,314.084Zm-5.84,4.22a1.731,1.731,0,1,1,1.733-1.729A1.728,1.728,0,0,1,189.589,318.3Z" transform="translate(-102.597 -193.618)" fill="#24aabb"/></g></g></svg>