<svg xmlns="http://www.w3.org/2000/svg" width="83.586" height="100" viewBox="0 0 83.586 100"><path d="M67.409,44.317a1.053,1.053,0,0,1,1.267.871,19.79,19.79,0,0,1-2.361,11.1c-2.233,4.371,2.815,16.83,4.95,21.262.01.021.02.042.028.063A43.571,43.571,0,0,1,73.72,88.3a40.934,40.934,0,0,1-3.9,22.971,3.3,3.3,0,0,1-2.333,1.724c-2.2.4-3.856,1.135-4.306,1.919a1,1,0,0,0-.037.916,1.789,1.789,0,0,0,1.566,1.152,14.909,14.909,0,0,0,6.551-.869,2.659,2.659,0,0,0,1.566-1.722c1.571-5.342,5.58-18.115,8.863-21.332A8.417,8.417,0,0,0,84.126,85.6a1.054,1.054,0,0,1,2.051-.485,10.473,10.473,0,0,1-2.6,9.02,5.692,5.692,0,0,0,1.974,2.791,13.32,13.32,0,0,1,.461-5.371C88.352,83.8,97.26,80.8,97.638,80.68a1.053,1.053,0,0,1,.655,2c-.081.027-8.255,2.793-10.273,9.494-1.376,4.568.36,9.987,5.159,16.1l4.305,3.92a1.082,1.082,0,0,1,.35.992,1.056,1.056,0,0,1-1.125.858c-2.5-.208-9.2-.01-10.282,3.329a.858.858,0,0,0,.067.712.8.8,0,0,0,.665.387c13.192.375,21.222.176,24.415-.24a2.6,2.6,0,0,0,1.837-1.171c1.7-2.608,4.479-2.479,9.106-2.264l.651.03c7.05.32,15.853-1.382,17.761-11.321.987-5.138-.576-9.352-3.8-15.332-.95-1.759-1.865-3.225-2.75-4.642-2.716-4.349-4.861-7.784-4.179-14.477.436-4.273,3.438-5.562,5.878-5.949a6.238,6.238,0,0,0-5.094-.169c-2.153,1.072-3.253,3.982-3.182,8.413.124,7.729,3.314,13.771,5.876,18.625a39.71,39.71,0,0,1,2.741,5.875,7.876,7.876,0,0,1-2.37,8.463,9.6,9.6,0,0,1-10.318,1.65c-3.055-1.365-5.327-2.672-5.423-2.727a1.054,1.054,0,0,1,1.053-1.825c.017.009,1.24.713,3.059,1.609,5.1-36.633-22.659-44.152-28.339-45.3-.211-.042-.459-.094-.716-.16-10.179-2.6-11.86-11.51-11.477-18.523C82.5,27.713,74.538,26.166,74.2,26.106a1.058,1.058,0,0,1-.871-1.115c.149-2.044-2.743-4.665-4.983-6.317a13.378,13.378,0,0,1-.659,3.082,10.046,10.046,0,0,1,2.8,4.232,1.081,1.081,0,0,1-.565,1.339,1.053,1.053,0,0,1-1.42-.634,9.047,9.047,0,0,0-4.97-5.2,15.289,15.289,0,0,0-1.953-.787c.253.7.541,1.522.816,2.383,1.364,4.271,1.172,5.538.8,6.215a17.858,17.858,0,0,1-1.106,1.663c-1.051,1.472-2.49,3.489-2.577,5.238a5.173,5.173,0,0,1-1.164,2.95c-.642.9-1.066,1.5-.31,3.565C59.05,45.479,65.3,44.78,67.409,44.317Z" transform="translate(-57.638 -18.674)" fill="#24aabb"/></svg>