<svg xmlns="http://www.w3.org/2000/svg" width="69.739" height="67.497" viewBox="0 0 69.739 67.497"><path d="M77.978,40.489A35.609,35.609,0,0,0,67.039,15.438a35.351,35.351,0,0,0-11.6-7.427A34.958,34.958,0,0,0,28.75,8.53a34.4,34.4,0,0,0-18.2,18.935A33.834,33.834,0,0,0,11.069,53.3,33.271,33.271,0,0,0,29.4,70.889a32.709,32.709,0,0,0,24.969-.519A32.146,32.146,0,0,0,71.349,52.65a31.417,31.417,0,0,0,1.866-7.3c.088.005.176.008.264.008a4.5,4.5,0,0,0,4.5-4.5c0-.126-.007-.251-.017-.375h.017ZM70.83,52.435A31.022,31.022,0,0,1,53.719,68.811a30.461,30.461,0,0,1-23.246-.52,29.9,29.9,0,0,1-15.768-16.5A29.334,29.334,0,0,1,15.225,29.4a28.885,28.885,0,0,1,6.484-9.2,28.594,28.594,0,0,1,9.41-5.965,28.192,28.192,0,0,1,10.869-1.873A27.735,27.735,0,0,1,61.473,21a27.469,27.469,0,0,1,5.721,9.046,27.069,27.069,0,0,1,1.787,10.438H69q-.016.187-.017.375a4.5,4.5,0,0,0,4.013,4.472,31.023,31.023,0,0,1-2.164,7.1Z" transform="translate(-8.24 -5.616)" fill="#24aabb"/></svg>