<svg xmlns="http://www.w3.org/2000/svg" width="131.834" height="100" viewBox="0 0 131.834 100"><g transform="translate(-22.499 -78.556)"><path d="M179.641,324.1c.045.863.215,2.471.394,4.174.065.62.132,1.251.194,1.866l2.6.215.085.009a6.826,6.826,0,0,0,1.973.079,8.966,8.966,0,0,0-.388-1c-.053-.121-.1-.24-.153-.355-1.812-4.3-1.274-8.567-.6-13.972a88.287,88.287,0,0,0,.673-20.174c-.793-.131-1.483-.273-2.06-.406a28.489,28.489,0,0,1-.186,4.851c-1.716,13.681-2.638,22.687-2.532,24.709Z" transform="translate(-112.868 -155.305)" fill="#24aabb"/><path d="M26.856,91.821c3.371,1.262,6.03,2.389,6.394,2.545a17.149,17.149,0,0,1,5.084,3.09,14.387,14.387,0,0,1,5.055,11.322c-.113,8.62,1.368,14.894,4.5,18.991a21.516,21.516,0,0,1,.332-10.337,1.409,1.409,0,1,1,2.681.865c-.026.081-2.592,8.412,2.675,15.119a22.911,22.911,0,0,1,4.594,10.622l2.318,14.93a23.012,23.012,0,0,1-.246,8.388l-1.221,5.651a4.35,4.35,0,0,1-3.55,3.367l-.094.015a.789.789,0,0,0,.128,1.567h7.6a1.588,1.588,0,0,0,1.094-.412,1.508,1.508,0,0,0,.475-1.254c-.09-.946-.2-1.991-.307-3-.183-1.733-.355-3.37-.4-4.3-.148-2.823,1.3-15.2,2.536-25.093A25.753,25.753,0,0,0,65.141,131.9l-1.886-5.156a1.448,1.448,0,0,1,.691-1.809,1.409,1.409,0,0,1,1.935.785l1.906,5.213a28.459,28.459,0,0,1,1.4,5.5,35.576,35.576,0,0,0,10,1.082,44.528,44.528,0,0,0,23.692-7.875c-4.8-8.107-5.061-13.136-5.072-13.477a1.409,1.409,0,1,1,2.816-.1c.01.2.861,13.142,21.12,31.368a28.1,28.1,0,0,1,9.048,16.479c.431,2.779.3,8.207-.878,10.388a1.407,1.407,0,0,1-.852.684,11.116,11.116,0,0,0-3.953,2.226.742.742,0,0,0-.176.863.764.764,0,0,0,.771.486l8.253-.412a1.662,1.662,0,0,0,1.056-.423,1.575,1.575,0,0,0,.462-1.531l-.946-3.881a8.619,8.619,0,0,1-.235-2.463l.8-16.441a5.833,5.833,0,0,0-.486-2.625c-5.525-12.532-4.9-15.393-3.951-19.723a34.767,34.767,0,0,0,.64-12.233,17.965,17.965,0,0,0-1.276-5.42,4.646,4.646,0,0,1,2.307-6.095c7.058-3.256,16.572-8.857,21.821-17.051l.179-.282c-8.816,8.765-21.9,13.795-28.017,15.792a11.511,11.511,0,0,1-6.3.216c-6.44-1.565-15.618-1.362-26.247-1.127-2.4.053-4.879.108-7.453.147q-.723.011-1.425.011c-17.375,0-24.567-4.944-28.408-10.724a19.808,19.808,0,0,1-4.658,7.143,4.63,4.63,0,0,1-3.332,1.415,4.809,4.809,0,0,1-.726-.056,4.629,4.629,0,0,1-3.461-2.509,10.254,10.254,0,0,1-.3-9.067,8.033,8.033,0,0,0,.57-6.053,1.4,1.4,0,0,1,.391-1.567,1.414,1.414,0,0,1,2.25.586,10.7,10.7,0,0,1-.636,8.177,7.428,7.428,0,0,0,.233,6.65,1.857,1.857,0,0,0,2.993.456c2.083-2.13,4.526-5.421,4.531-9.109-.576-1.275-1.069-2.547-1.543-3.774-.241-.624-.479-1.24-.724-1.842-2.173-5.359-8.537-6.183-12.239-6.183H39.7a5.377,5.377,0,0,0-3.044.971l-1.587,1.1a8.586,8.586,0,0,1-4.053,1.493l-7.756.762a.845.845,0,0,0-.727,1.087c1.312,4.318,2.96,7.34,4.321,7.85Z" transform="translate(0 0)" fill="#24aabb"/><path d="M324.785,309.185a4.51,4.51,0,0,1-1.22.619,19.345,19.345,0,0,0-4.429,2.038.731.731,0,0,0-.3.882.761.761,0,0,0,.8.556l4.5-.2a3.605,3.605,0,0,1,.934-1.429,13.657,13.657,0,0,1,4.469-2.672,22.96,22.96,0,0,0,.383-8.19,25.39,25.39,0,0,0-8.186-14.884,91.967,91.967,0,0,1-15.558-17.574q-1.375.92-2.733,1.714a99.723,99.723,0,0,0,11.434,12.008c4.848,4.362,10.187,11.638,11.182,18.06l.506,4.949a4.5,4.5,0,0,1-1.785,4.125Z" transform="translate(-201.879 -136.515)" fill="#24aabb"/></g></svg>