<svg xmlns="http://www.w3.org/2000/svg" viewBox="0 0 300.08 260.9"><title>Element 1</title><g id="Ebene_2" data-name="Ebene 2"><g id="Layer_7" data-name="Layer 7"><path d="M300.08,75.93a76.59,76.59,0,0,0-150.23-20.4A76.59,76.59,0,1,0,27.57,136.71c.6.79,1.24,1.6,1.91,2.39l88.07,104.68c19.41,23.06,50.81,22.79,69.81-.61L273.59,137a59.93,59.93,0,0,0,5.09-7.29A76.28,76.28,0,0,0,300.08,75.93Z" fill="#27abbb"/><path d="M72.83,21.09C46.16,26.48,27.48,47.66,24.19,74.4c-1.28,10.39,15,10.27,16.27,0C42.9,54.63,58.19,40.61,77.15,36.78,87.43,34.7,83.07,19,72.83,21.09Z" fill="#a9dde4"/><path d="M195,158a22,22,0,0,1-22,22H128a22,22,0,0,1-22-22h0a22,22,0,0,1,22-22h45a22,22,0,0,1,22,22Z" fill="#fff"/><path d="M172.52,141.58c0,15.34-10,27.77-22.22,27.77s-22.22-12.43-22.22-27.77S138,113.8,150.3,113.8,172.52,126.24,172.52,141.58Z" fill="#fff"/><path d="M190.19,97.63A17.17,17.17,0,1,1,173,80.46,17.17,17.17,0,0,1,190.19,97.63Z" fill="#fff"/><path d="M144.74,97.63a17.17,17.17,0,1,1-17.16-17.17A17.16,17.16,0,0,1,144.74,97.63Z" fill="#fff"/><circle cx="97.52" cy="127.19" r="14.39" transform="translate(-43.64 203.08) rotate(-80.78)" fill="#fff"/><path d="M217.47,127.19a14.39,14.39,0,1,1-14.39-14.39A14.39,14.39,0,0,1,217.47,127.19Z" fill="#fff"/></g></g></svg>