<svg xmlns="http://www.w3.org/2000/svg" viewBox="0 0 323.6 308"><title>213432</title><g id="Ebene_2" data-name="Ebene 2"><g id="Layer_7" data-name="Layer 7"><path d="M286.31,271.49A36.52,36.52,0,0,1,249.8,308h-177a36.51,36.51,0,0,1-36.51-36.51v-107L163.31,44l123,120.51Z" fill="#d8d9dd"/><path d="M171.94,31.77a14.56,14.56,0,0,0-20.29,0l-120.76,119C25.31,156.27,28.21,161,37.34,161H286.25c9.13,0,12-4.73,6.45-10.22Z" fill="none"/><rect x="111.09" y="181" width="108" height="53" rx="26.46" fill="#c2c3c9"/><ellipse cx="164.58" cy="187.54" rx="26.89" ry="33.61" fill="#c2c3c9"/><path d="M212.84,134.37a20.77,20.77,0,1,1-20.77-20.77A20.77,20.77,0,0,1,212.84,134.37Z" fill="#c2c3c9"/><path d="M157.86,134.37a20.78,20.78,0,1,1-20.78-20.77A20.77,20.77,0,0,1,157.86,134.37Z" fill="#c2c3c9"/><path d="M118.13,170.13a17.41,17.41,0,1,1-17.41-17.41A17.42,17.42,0,0,1,118.13,170.13Z" fill="#c2c3c9"/><path d="M245.84,170.13a17.41,17.41,0,1,1-17.4-17.41A17.41,17.41,0,0,1,245.84,170.13Z" fill="#c2c3c9"/><path d="M315,132.71c-13.09-14.3-27.73-27.41-41.54-41L208.07,27.37,193.35,12.89A45.34,45.34,0,0,0,138.76,6.2c-4.14,2.4-7.51,5.69-10.86,9L74,68.28l-44.2,43.5c-7,6.94-14.46,13.64-21.14,20.93-11,12-11.94,30.49,0,42.42C19.8,186.31,40,187.2,51,175.13c13.09-14.29,27.73-27.4,41.54-41L158,69.8l11.14-11,3-2.95.64-.63c-1.59,1.57-6,3.66-1.2,1.47l-7.16,3a20.59,20.59,0,0,1,4-1l-8,1.07a15.9,15.9,0,0,1,2.76,0l-8-1.07a20.59,20.59,0,0,1,4,1l-7.17-3c3.27,1.49,3.36,3-1.28-1.55l.39.38,2.1,2.07q4.13,4.07,8.26,8.12l28.33,27.89,65.73,64.7c5.65,5.56,11.6,10.95,17,16.8,11.05,12.07,31.25,11.18,42.43,0,11.93-11.93,11-30.37,0-42.42Z" fill="#d8d9dd"/></g></g></svg>