<svg xmlns="http://www.w3.org/2000/svg" xmlns:xlink="http://www.w3.org/1999/xlink" width="265.176" height="256.762" viewBox="0 0 265.176 256.762"><defs><style>.a{fill:url(#a);}</style><linearGradient id="a" x1="0.5" y1="-0.191" x2="0.5" y2="0.961" gradientUnits="objectBoundingBox"><stop offset="0" stop-color="#31d3d3"/><stop offset="1" stop-color="#083776"/></linearGradient></defs><g transform="translate(-213.587 -50.027)"><path class="a" d="M1254.94,697.68l-49.59-49.59a50,50,0,0,0-70.7,0l-49.59,49.59a63.7,63.7,0,0,0-2.428,87.622c19.466,21.706,65.342,35.015,87.368,21.378,3.275-2.026-3.03-2.3,0,0,19.648,14.9,67.562.705,87.368-21.379A63.7,63.7,0,0,0,1254.94,697.68Zm-114.89,44.7a17.784,17.784,0,1,1,25.15-25.15,7.29,7.29,0,0,0,10.3,0,17.784,17.784,0,1,1,25.15,25.15c-12.528,12.526-31.673,29.6-30.65,30.621Z" transform="translate(-822.99 -506.033)"/><path class="a" d="M1214.54,644.136h0c-15.7,0-29.136-13.854-31.921-32.9s5.879-37.81,20.58-44.574,31.219.422,39.225,17.065,5.2,37.967-6.654,50.639c-5.893,6.3-13.431,9.77-21.23,9.768Z" transform="translate(-823 -514.033)"/><path class="a" d="M1125.66,644.06h0a18.639,18.639,0,0,1-2.34-.1c-17.85-1.611-31.272-20.743-30-42.763,1.263-20.891,15.345-37.068,32.33-37.138a18.64,18.64,0,0,1,2.34.1c17.85,1.611,31.272,20.743,30,42.763-1.268,20.889-15.347,37.062-32.33,37.138Z" transform="translate(-823 -514.033)"/><path class="a" d="M1060.043,700.234h0c-14.407.011-26.754-12.7-29.318-30.178s5.391-34.716,18.888-40.927,28.666.384,36.018,15.66,4.778,34.852-6.111,46.482c-5.406,5.779-12.321,8.962-19.477,8.963Z" transform="translate(-816.66 -513.699)"/><path class="a" d="M1060.043,700.234h0c-14.407.011-26.754-12.7-29.318-30.178s5.391-34.716,18.888-40.927,28.666.384,36.018,15.66,4.778,34.852-6.111,46.482c-5.406,5.779-12.321,8.962-19.477,8.963Z" transform="translate(-611.039 -513.699)"/></g></svg>