<svg xmlns="http://www.w3.org/2000/svg" xmlns:xlink="http://www.w3.org/1999/xlink" width="369.5" height="401.653" viewBox="0 0 369.5 401.653"><defs><linearGradient id="a" x1="0.5" y1="-0.191" x2="0.5" y2="0.961" gradientUnits="objectBoundingBox"><stop offset="0" stop-color="#31d3d3"/><stop offset="1" stop-color="#083776"/></linearGradient></defs><g transform="translate(-120.753 -196.027)"><path d="M1013,941.67a1.732,1.732,0,0,1,.06-.3L1018.7,923c.26-.87,1.34-1.28,2.42-1.28a2.41,2.41,0,0,1,2.46,1.28l5.63,18.37a1.31,1.31,0,0,1,.06.3c0,.9-1.37,1.57-2.39,1.57-.65,0-1.14-.2-1.29-.76l-1.11-3.88h-6.69l-1.11,3.88c-.14.56-.64.76-1.28.76C1014.33,943.24,1013,942.6,1013,941.67Zm10.66-6-2.54-9-2.54,9Z" transform="translate(-863.56 -345.74)" fill="#26aabb"/><path d="M1038.07,921.89c3.86,0,6.87,1.81,6.87,6.69v8c0,4.88-3,6.69-6.87,6.69h-5.17c-1,0-1.66-.55-1.66-1.17v-19c0-.61.67-1.17,1.66-1.17Zm-3,3.33v14.69h3c1.93,0,3.07-1.08,3.07-3.36v-8c0-2.28-1.14-3.36-3.07-3.36Z" transform="translate(-863.56 -345.74)" fill="#26aabb"/><path d="M1048,936.73v-8.15c0-4.88,3-6.69,6.83-6.69s6.86,1.81,6.86,6.69v8.15c0,4.88-3,6.69-6.86,6.69S1048,941.61,1048,936.73Zm9.9-8.15c0-2.31-1.17-3.36-3.07-3.36s-3,1-3,3.36v8.15c0,2.31,1.11,3.36,3,3.36s3.07-1.05,3.07-3.36Z" transform="translate(-863.56 -345.74)" fill="#26aabb"/><path d="M1064.89,923.06a1.29,1.29,0,0,1,1.43-1.17h5.87c3.71,0,6.63,1.78,6.63,6.57v.18c0,4.79-3,6.63-6.87,6.63h-3.27V942c0,.79-1,1.2-1.9,1.2s-1.89-.41-1.89-1.2Zm3.79,2.16v7.07H1072c1.9,0,3.07-1.08,3.07-3.36v-.35c0-2.28-1.17-3.36-3.07-3.36Z" transform="translate(-863.56 -345.74)" fill="#26aabb"/><path d="M1093.3,921.89c.82,0,1.2.88,1.2,1.7s-.44,1.72-1.2,1.72H1089V942c0,.79-1,1.2-1.9,1.2s-1.9-.41-1.9-1.2V925.31H1081c-.76,0-1.2-.79-1.2-1.72s.38-1.7,1.2-1.7Z" transform="translate(-863.56 -345.74)" fill="#26aabb"/><path d="M1100.93,941.67a1.732,1.732,0,0,1,.06-.3l5.64-18.37c.26-.87,1.34-1.28,2.42-1.28s2.19.41,2.45,1.28l5.64,18.37a1.31,1.31,0,0,1,.06.3c0,.9-1.38,1.57-2.4,1.57-.64,0-1.14-.2-1.28-.76l-1.11-3.88h-6.69l-1.11,3.88c-.15.56-.64.76-1.29.76C1102.3,943.24,1100.93,942.6,1100.93,941.67Zm10.66-6-2.54-9-2.54,9Z" transform="translate(-863.56 -345.74)" fill="#26aabb"/><path d="M1125.06,923.09c0-.79.81-1.2,1.66-1.2h10.19c.82,0,1.17.85,1.17,1.64s-.41,1.69-1.17,1.69h-8.06v5.84h4.47c.76,0,1.17.73,1.17,1.52s-.35,1.46-1.17,1.46h-4.47v8c0,.79-1,1.2-1.9,1.2s-1.89-.41-1.89-1.2Z" transform="translate(-863.56 -345.74)" fill="#26aabb"/><path d="M1139.89,923.06a1.19,1.19,0,0,1,1.23-1.17h5.78c3.83,0,6.92,1.46,6.92,6.11,0,3.36-1.63,5.17-3.82,5.84l3.82,7.09a.8.8,0,0,1,.15.47,2.46,2.46,0,0,1-2.36,2,1.49,1.49,0,0,1-1.32-.91l-4.15-8.06h-2.45V942c0,.79-.93,1.2-1.9,1.2s-1.9-.41-1.9-1.2Zm3.8,2.16v6.22h3.21c1.9,0,3.13-.79,3.13-3.09s-1.23-3.13-3.13-3.13Z" transform="translate(-863.56 -345.74)" fill="#26aabb"/><path d="M1156.54,923.06c0-.82.94-1.17,1.9-1.17s1.9.35,1.9,1.17v19c0,.79-1,1.2-1.9,1.2s-1.9-.41-1.9-1.2Z" transform="translate(-863.56 -345.74)" fill="#26aabb"/><path d="M1167.64,931.06h4.44c.76,0,1.2.73,1.2,1.52a1.32,1.32,0,0,1-1.2,1.46h-4.44v5.87h8.27c.76,0,1.19.79,1.19,1.7s-.38,1.63-1.19,1.63h-10.4c-.85,0-1.66-.41-1.66-1.2V923.09c0-.79.81-1.2,1.66-1.2h10.4c.81,0,1.19.85,1.19,1.64s-.43,1.69-1.19,1.69h-8.27Z" transform="translate(-863.56 -345.74)" fill="#26aabb"/><path d="M1189.4,942l-6.28-11.74V942c0,.79-1,1.2-1.9,1.2s-1.89-.41-1.89-1.2V923.09c0-.82.93-1.2,1.89-1.2,1.38,0,1.93.3,2.84,2l5.63,10.89V923.06c0-.82.94-1.17,1.9-1.17s1.9.35,1.9,1.17v19c0,.79-1,1.2-1.9,1.2a2.28,2.28,0,0,1-2.19-1.26Z" transform="translate(-863.56 -345.74)" fill="#26aabb"/><path d="M1203.83,921.89c3.86,0,6.86,1.81,6.86,6.69v8c0,4.88-3,6.69-6.86,6.69h-5.17c-1,0-1.66-.55-1.66-1.17v-19c0-.61.67-1.17,1.66-1.17Zm-3,3.33v14.69h3c1.93,0,3.07-1.08,3.07-3.36v-8c0-2.28-1.14-3.36-3.07-3.36Z" transform="translate(-863.56 -345.74)" fill="#26aabb"/><path d="M1219.78,923.09c0-.79.82-1.2,1.66-1.2h10.2c.82,0,1.17.85,1.17,1.64s-.41,1.69-1.17,1.69h-8.06v5.84H1228c.76,0,1.17.73,1.17,1.52s-.35,1.46-1.17,1.46h-4.46v8c0,.79-1,1.2-1.9,1.2s-1.9-.41-1.9-1.2Z" transform="translate(-863.56 -345.74)" fill="#26aabb"/><path d="M1234.15,936.73v-8.15c0-4.88,3-6.69,6.83-6.69s6.87,1.81,6.87,6.69v8.15c0,4.88-3,6.69-6.87,6.69S1234.15,941.61,1234.15,936.73Zm9.9-8.15c0-2.31-1.17-3.36-3.07-3.36s-3,1-3,3.36v8.15c0,2.31,1.11,3.36,3,3.36s3.07-1.05,3.07-3.36Z" transform="translate(-863.56 -345.74)" fill="#26aabb"/><path d="M1251.09,923.06a1.19,1.19,0,0,1,1.23-1.17h5.78c3.83,0,6.92,1.46,6.92,6.11,0,3.36-1.63,5.17-3.82,5.84l3.82,7.09a.8.8,0,0,1,.15.47,2.46,2.46,0,0,1-2.37,2,1.49,1.49,0,0,1-1.31-.91l-4.15-8.06h-2.45V942c0,.79-.94,1.2-1.9,1.2s-1.9-.41-1.9-1.2Zm3.8,2.16v6.22h3.21c1.9,0,3.13-.79,3.13-3.09s-1.23-3.13-3.13-3.13Z" transform="translate(-863.56 -345.74)" fill="#26aabb"/><path d="M1275.25,943.24c-.85,0-1.67-.41-1.67-1.2v-19c0-.82.94-1.17,1.9-1.17s1.9.35,1.9,1.17v16.85h7.12c.76,0,1.14.82,1.14,1.67s-.38,1.66-1.14,1.66Z" transform="translate(-863.56 -345.74)" fill="#26aabb"/><path d="M1287.72,923.06c0-.82.93-1.17,1.9-1.17s1.9.35,1.9,1.17v19c0,.79-1,1.2-1.9,1.2s-1.9-.41-1.9-1.2Z" transform="translate(-863.56 -345.74)" fill="#26aabb"/><path d="M1295,923.09c0-.79.82-1.2,1.67-1.2h10.19c.82,0,1.17.85,1.17,1.64s-.41,1.69-1.17,1.69h-8.06v5.84h4.47c.75,0,1.16.73,1.16,1.52s-.35,1.46-1.16,1.46h-4.47v8c0,.79-1,1.2-1.9,1.2s-1.9-.41-1.9-1.2Z" transform="translate(-863.56 -345.74)" fill="#26aabb"/><path d="M1313.66,931.06h4.44c.75,0,1.19.73,1.19,1.52a1.32,1.32,0,0,1-1.19,1.46h-4.44v5.87h8.26c.76,0,1.2.79,1.2,1.7s-.38,1.63-1.2,1.63h-10.4c-.84,0-1.66-.41-1.66-1.2V923.09c0-.79.82-1.2,1.66-1.2h10.4c.82,0,1.2.85,1.2,1.64s-.44,1.69-1.2,1.69h-8.26Z" transform="translate(-863.56 -345.74)" fill="#26aabb"/><path d="M983.56,919.216v-102.9l7-.741c18.21-1.942,30.64,5.8,36.92,16.9a35.9,35.9,0,0,1,4.62,16.1,39.311,39.311,0,0,1-2.91,16.666c-4.62,11.107-14.6,20.53-30,23.352l.05,30.65Zm15.58-47.756c8.13-2.232,13.35-7.287,15.75-13.093a20.715,20.715,0,0,0,1.57-8.929,18.65,18.65,0,0,0-2.31-8.274c-2.63-4.668-7.62-8.188-15-8.982Z" transform="translate(-862.807 -354.549)" fill="#0a2e5f"/><path d="M1029.3,909.88l13.53-84.51,1.07-6.61h24.81l1.39,6.06,19.59,85.1-15.25,3.52-7.3-31.7-17.51-.09-4.9,30.68Zm34.28-43.76-6.74-29.34-4.72,29.3Z" transform="translate(-863.949 -346.495)" fill="#0a2e5f"/><path d="M1109.87,824.39l1.29,67.267,13.27-40.6,14-.146,12.1,40.647,1.16-68.224,15.52,1.778-3.65,88.792h-23.28l-9.66-35.51-11,35.354H1096.2l-1.89-88.459Z" transform="translate(-867.613 -349.895)" fill="#0a2e5f"/><path d="M1177.833,817.686l45.7-1.5,12.782-.393-5.917,11.317-34.1,64.942,29.853.536-.259,14.955-41.945-.756-12.121-.22,5.62-10.7L1211.2,831.53l-32.878,1.063Z" transform="translate(-871.267 -343.525)" fill="#0a2e5f"/><path d="M1263.69,819.64l-4.3,93.57-15.62-.65,4.35-93.61Z" transform="translate(-877.768 -347.94)" fill="#0a2e5f"/><path d="M1306.25,877.88l-20.33-2.292-1.62,20.7,35.26-.92.37,15.62-43.48,1.11-8.18.18.23-8.18,2-76.61.18-7.62H1319v15.66h-33.08l-1.29,21.8,21.62-3.629Z" transform="translate(-877.219 -347.765)" fill="#0a2e5f"/><path d="M1342.34,880.12c-2.54,8.83-1.71,13.86.55,16.13a6.28,6.28,0,0,0,5,1.48,8.851,8.851,0,0,0,5.82-2.82c1.62-1.76,2.17-4.58.46-8.18a62.407,62.407,0,0,0-7.07-10.9,85.8,85.8,0,0,0-10.35-11.09c-16.17-14.28-14.42-28-6.56-37a26.73,26.73,0,0,1,12.38-7.85,23.36,23.36,0,0,1,14.65.09c10,3.56,16.68,14.09,9.57,34l-14.74-5.27c3.23-9.1,2.26-13.17-.1-14a7.591,7.591,0,0,0-4.85.14,11,11,0,0,0-5.17,3.23c-2.59,3-2.41,8.22,5.17,14.88a106.824,106.824,0,0,1,12.29,13.17,77.748,77.748,0,0,1,8.83,13.86c5,10.39,2.63,19.31-3,25.41a25,25,0,0,1-16,7.81,21.411,21.411,0,0,1-17.51-6c-5.91-6-8.87-16.17-4.53-31.42Z" transform="translate(-880.7 -347.746)" fill="#0a2e5f"/><path d="M1254.94,697.68l-49.59-49.59a50,50,0,0,0-70.7,0l-49.59,49.59a63.7,63.7,0,0,0-2.428,87.622c19.466,21.706,65.342,35.015,87.368,21.378,3.275-2.026-3.03-2.3,0,0,19.648,14.9,67.562.705,87.368-21.379A63.7,63.7,0,0,0,1254.94,697.68Zm-114.89,44.7a17.784,17.784,0,1,1,25.15-25.15,7.29,7.29,0,0,0,10.3,0,17.784,17.784,0,1,1,25.15,25.15c-12.528,12.526-31.673,29.6-30.65,30.621Z" transform="translate(-866.237 -360.033)" fill="url(#a)"/><path d="M1214.54,644.136h0c-15.7,0-29.136-13.854-31.921-32.9s5.879-37.81,20.58-44.574,31.219.422,39.225,17.065,5.2,37.967-6.654,50.639c-5.893,6.3-13.431,9.77-21.23,9.768Z" transform="translate(-866.247 -368.033)" fill="url(#a)"/><path d="M1125.66,644.06h0a18.639,18.639,0,0,1-2.34-.1c-17.85-1.611-31.272-20.743-30-42.763,1.263-20.891,15.345-37.068,32.33-37.138a18.64,18.64,0,0,1,2.34.1c17.85,1.611,31.272,20.743,30,42.763-1.268,20.889-15.347,37.062-32.33,37.138Z" transform="translate(-866.247 -368.033)" fill="url(#a)"/><path d="M1060.043,700.234h0c-14.407.011-26.754-12.7-29.318-30.178s5.391-34.716,18.888-40.927,28.666.384,36.018,15.66,4.778,34.852-6.111,46.482c-5.406,5.779-12.321,8.962-19.477,8.963Z" transform="translate(-859.907 -367.699)" fill="url(#a)"/><path d="M1060.043,700.234h0c-14.407.011-26.754-12.7-29.318-30.178s5.391-34.716,18.888-40.927,28.666.384,36.018,15.66,4.778,34.852-6.111,46.482c-5.406,5.779-12.321,8.962-19.477,8.963Z" transform="translate(-654.285 -367.699)" fill="url(#a)"/></g></svg>