<svg xmlns="http://www.w3.org/2000/svg" width="100" height="100" viewBox="0 0 100 100"><g transform="translate(-275 -161)"><path d="M.072,65.592V10.047q0-.1.289-1.832L33.052,36.18.458,67.52a8.173,8.173,0,0,1-.386-1.929ZM4.411,4.357a4.156,4.156,0,0,1,1.639-.289H94.093a5.46,5.46,0,0,1,1.736.289L63.042,32.419,58.7,35.891,50.12,42.93l-8.582-7.04L37.2,32.419Zm.1,66.924L37.391,39.748,50.12,50.066,62.849,39.748,95.733,71.281a4.63,4.63,0,0,1-1.639.289H6.051a4.368,4.368,0,0,1-1.543-.289Zm62.681-35.1L99.783,8.215a5.756,5.756,0,0,1,.289,1.832V65.592a7.391,7.391,0,0,1-.289,1.929Z" transform="translate(274.928 189.43)" fill="#24aabb"/><g transform="translate(174 -100)"><rect width="100" height="100" transform="translate(101 261)" fill="none"/></g></g></svg>