<svg xmlns="http://www.w3.org/2000/svg" width="100" height="100" viewBox="0 0 100 100"><g transform="translate(110 -181)"><g transform="translate(-211 -80)"><rect width="100" height="100" transform="translate(101 261)" fill="none"/></g><path d="M95.2,69.251,73.767,60.063a4.594,4.594,0,0,0-5.359,1.321l-9.494,11.6A70.948,70.948,0,0,1,25,39.068l11.6-9.494a4.582,4.582,0,0,0,1.321-5.359L28.73,2.777A4.624,4.624,0,0,0,23.467.116L3.56,4.71A4.594,4.594,0,0,0,0,9.187,88.8,88.8,0,0,0,88.814,98a4.594,4.594,0,0,0,4.479-3.56l4.594-19.907A4.649,4.649,0,0,0,95.2,69.251Z" transform="translate(-109 183)" fill="#24aabb"/></g></svg>