<svg xmlns="http://www.w3.org/2000/svg" viewBox="0 0 316.69 316.04"><title>Layer 7</title><g id="Ebene_2" data-name="Ebene 2"><g id="Layer_7" data-name="Layer 7"><path d="M197.15,237.51l70,70a29,29,0,1,0,41-41l-70-70Z" fill="#d8d9dd"/><circle cx="135.72" cy="135.72" r="127.22" transform="translate(-31.12 230.62) rotate(-74.63)" fill="none" stroke="#d8d9dd" stroke-miterlimit="10" stroke-width="17"/><path d="M176.15,165.2a21.43,21.43,0,0,1-21.45,21.3h-44a21.55,21.55,0,0,1-21.59-21.3v-.13c0-11.76,10-20.82,21.75-20.82h43.66c11.76,0,21.59,9.06,21.59,20.82Z" fill="#c2c3c9"/><path d="M153.69,149.3c0,14.85-9.64,26.89-21.52,26.89s-21.51-12-21.51-26.89,9.63-26.89,21.51-26.89S153.69,134.45,153.69,149.3Z" fill="#c2c3c9"/><path d="M170.79,106.76a16.62,16.62,0,1,1-16.62-16.62A16.62,16.62,0,0,1,170.79,106.76Z" fill="#c2c3c9"/><path d="M126.79,106.76a16.62,16.62,0,1,1-16.61-16.62A16.62,16.62,0,0,1,126.79,106.76Z" fill="#c2c3c9"/><path d="M95,135.37a13.93,13.93,0,1,1-13.93-13.93A13.93,13.93,0,0,1,95,135.37Z" fill="#c2c3c9"/><path d="M197.2,135.37a13.93,13.93,0,1,1-13.93-13.93A13.93,13.93,0,0,1,197.2,135.37Z" fill="#c2c3c9"/></g></g></svg>