<svg xmlns="http://www.w3.org/2000/svg" width="111.836" height="100" viewBox="0 0 111.836 100"><g transform="translate(-12.85 -495.385)"><g transform="translate(12.85 495.385)"><path d="M118.732,130.543c.893-13.015-2.061-23.034-8.781-29.781-8.169-8.2-20.3-9.628-26.18-9.178-10.356.793-15.655,3.016-17.452,3.934a2.243,2.243,0,0,1-2.584-.4c-3.221-3.132-8.267-3.913-9.955-3.436a2.734,2.734,0,0,1-2.713-.74,2.871,2.871,0,0,1-.744-1.554,9.98,9.98,0,0,0-3.254-6.166,5.691,5.691,0,0,1-2.285-4.284,6.794,6.794,0,0,1,2.1-4.615c9.2-10.89,6.714-21.009,5.216-24.858a.435.435,0,0,0-.562-.247c-6.148,2.262-10.207,6.949-12.067,13.932a31.241,31.241,0,0,0-.958,9.965v.009a5.257,5.257,0,0,1-4.5,5.661c-.938.127-2.057.262-3.422.414-4.163.462-6.324,3.89-7.241,5.892a11.255,11.255,0,0,1-1.854,2.817,32.792,32.792,0,0,0-2.555,3.882c-.394.645-.831,1.362-1.32,2.152-1.414,2.284-1.921,4.127-1.43,5.189a3.057,3.057,0,0,0,2.357,1.362,2.678,2.678,0,0,1,1.346.595,7.617,7.617,0,0,0,7.733,1.033,4.367,4.367,0,0,1,4.064.213c2.2,1.479,2.409,5.152,2.589,8.393.056,1.007.109,1.958.219,2.7,1.206,8.116,8.01,12.828,16.368,17.452a35.393,35.393,0,0,0-.39-4.705,1.149,1.149,0,1,1,2.263-.391c.062.367,1.49,9.047-1.251,14.286a5.869,5.869,0,0,1-4.11,3.077c-2.967.566-4.171,1.594-4.658,2.356a2.469,2.469,0,0,0-.248.5H50.16a2.028,2.028,0,0,0,1.536-.705c2.581-2.991,9.172-10.664,14.606-17.282,6.136-7.473-2.95-18.224-3.042-18.332a1.168,1.168,0,0,1,.113-1.636,1.14,1.14,0,0,1,1.62.114,28.956,28.956,0,0,1,4.289,7.1c2.3,5.548,1.876,10.469-1.213,14.23-1.584,1.931-3.268,3.95-4.921,5.916a33.6,33.6,0,0,0,10.1,1.034A19.827,19.827,0,0,0,82.6,134.2c-.186-.6-.366-1.232-.534-1.885-1.848-7.178-1.37-13.671,1.383-18.779a15.654,15.654,0,0,1,10-8.108,17.708,17.708,0,0,1,13.541,2.167c5.088,3.362,6.149,6.62,6.192,6.757a1.162,1.162,0,0,1-.743,1.459,1.146,1.146,0,0,1-1.444-.751c-.024-.07-.971-2.687-5.262-5.522a15.544,15.544,0,0,0-11.724-1.859,13.241,13.241,0,0,0-8.548,6.968c-6.008,11.149,2.133,25.7,2.216,25.845a1.17,1.17,0,0,1,.014,1.132,1.147,1.147,0,0,1-.948.6l-13,.608c-.4.019-.8.023-1.207.025-1.169.007-3.179.284-4.107,1.988a3.507,3.507,0,0,0-.62,1.74,2.285,2.285,0,0,0,1.03.116h.031l35.29-.248a.864.864,0,0,0,.634-.335l1.119-2.708a3.178,3.178,0,0,1,2.541-1.473,9.819,9.819,0,0,0,5.784-2.416,12.841,12.841,0,0,0,4.5-8.979Z" transform="translate(-16.007 -47.31)" fill="#24aabb"/><path d="M97.251,65.628A39.147,39.147,0,0,1,98.26,60.5a28.921,28.921,0,0,1,5.862-11.465c-5.257-7.166-7.484-6.645-7.888-6.458-.829.384-1.776,2.163-1.949,6.006a44.352,44.352,0,0,0,1.5,12.356C96.238,62.687,96.751,64.243,97.251,65.628Z" transform="translate(-76.318 -42.485)" fill="#24aabb"/><path d="M443.7,412.792l-5.794.934a18.031,18.031,0,0,1-5.656,8.43,15.39,15.39,0,0,1-6.962,3.346,13.844,13.844,0,0,0,8.894.154c2.967-1.015,7.249-3.779,10.8-11.177a1.157,1.157,0,0,0-.121-1.219,1.177,1.177,0,0,0-1.158-.468Z" transform="translate(-333.259 -329.276)" fill="#24aabb"/></g><path d="M69.186,38.257c-5.063-2.041-9.032-2.046-11.8-.013-4.893,3.594-4.775,12.534-4.691,14.436a17.5,17.5,0,0,1,5.017,3.9,24.452,24.452,0,0,1,5.68,11.136A19.248,19.248,0,0,1,62.761,78.7,16.35,16.35,0,0,1,54.7,87.438a.647.647,0,0,1-.6-1.149,15.092,15.092,0,0,0,7.451-8.051,17.962,17.962,0,0,0,.575-10.245c-1.791-8.27-8.053-15.007-14.255-15.338a15.151,15.151,0,0,1-2.173-.272,11.179,11.179,0,0,1-7.7-5.91,14.254,14.254,0,0,0-4.925-5.393,7.7,7.7,0,0,1-.807,2.24.647.647,0,0,1-1.135-.623,6.382,6.382,0,0,0,.77-2.678c0-.007,0-.014,0-.021a5.009,5.009,0,0,0-.964-3.521.963.963,0,0,0-1.231-.295,6.632,6.632,0,0,0-1.731,2.727.647.647,0,0,1-.584.413c-3.181.1-5.629.964-7.274,2.575a9.244,9.244,0,0,0-2.26,3.941,14.609,14.609,0,0,1-1.512,3.118,2.541,2.541,0,0,0-.315,1.681c.715.66,3.607,1.667,7,1.769,1.987.06,3.271,1.219,3.814,3.447a13.414,13.414,0,0,0,1.99,3.374,18.424,18.424,0,0,0-.16-5.949.647.647,0,0,1,1.266-.272c.046.213,1.1,5.252-.555,8.933-.184.41-.708,1.03-3.138,2.187-1.722.82-3.62,1.539-4.356,1.81a4.623,4.623,0,0,0-2.739,2.655l-.017.045a.981.981,0,0,0,.082.855,1,1,0,0,0,.734.476l.784.1a.364.364,0,0,0,.4-.263,3.655,3.655,0,0,1,2.556-2.777,11.111,11.111,0,0,1,5.6.344c2.581.62,5.251,1.263,8.84-.893,1.845-1.109,1.807-3.819,1.45-5.9a22.588,22.588,0,0,0-1.35-4.568.647.647,0,1,1,1.187-.518c.166.379,4,9.315-.62,12.094A10.536,10.536,0,0,1,32.4,69.241a4.966,4.966,0,0,0,1.3,1.416l.03-.02c2.764-1.821,5.493-2.311,8.112-1.457,6.106,1.992,9.372,10.572,9.508,10.936a.647.647,0,1,1-1.213.453c-.031-.083-3.188-8.364-8.7-10.159-2.224-.725-4.578-.285-6.995,1.308-2.674,1.762-4.114,3.92-4.28,6.416-.373,5.631,5.681,11.452,6.761,12.443,3.969.157,4.751-.864,4.756-.876a.647.647,0,1,1,1.2.481c-.142.356-1.07,1.924-6.218,1.679h-.007c-.716-.034-1.512-.1-2.4-.216-4.083-.517-5.977.426-6.817,1.19H45.2a.745.745,0,0,0,.727-.906,6.385,6.385,0,0,0-1.382-2.766.647.647,0,1,1,.992-.832,7.7,7.7,0,0,1,1.588,3.054,11.9,11.9,0,0,0,4.052,1.45A15.049,15.049,0,0,0,61.8,90.452c4.063-2.507,6.551-7.426,7.005-13.853a42.182,42.182,0,0,0-4.326-20.477L64.4,55.96a4.192,4.192,0,0,1,6.46-4.992l3.946,3.213a1.737,1.737,0,0,0,2.688-.645,10.308,10.308,0,0,0-.234-7.754c-.952-2.333-3.127-5.531-8.074-7.525Z" transform="translate(25.833 502.354)" fill="#0c2e5f"/></g></svg>