<svg xmlns="http://www.w3.org/2000/svg" viewBox="0 0 300.08 260.9"><defs><style>.cls-1{fill:#27abbb;}.cls-2{fill:#a9dde4;}.cls-3{fill:#fff;}</style></defs><title>20</title><g id="Layer_7" data-name="Layer 7"><path class="cls-1" d="M406.09,197.93a76.59,76.59,0,0,0-150.23-20.4,76.59,76.59,0,1,0-122.28,81.18c.61.79,1.24,1.6,1.91,2.4l88.07,104.67c19.41,23.06,50.81,22.79,69.81-.61L379.6,259a59.86,59.86,0,0,0,5.09-7.28A76.32,76.32,0,0,0,406.09,197.93Z" transform="translate(-106.01 -122)"/><path class="cls-2" d="M178.84,143.1c-26.67,5.38-45.35,26.56-48.64,53.3-1.28,10.4,15,10.28,16.27,0,2.44-19.77,17.73-33.79,36.69-37.62,10.28-2.08,5.92-17.76-4.32-15.68Z" transform="translate(-106.01 -122)"/><path class="cls-3" d="M301,280a22,22,0,0,1-22,22H234a22,22,0,0,1-22-22h0a22,22,0,0,1,22-22h45a22,22,0,0,1,22,22Z" transform="translate(-106.01 -122)"/><path class="cls-3" d="M278.53,263.58c0,15.34-9.95,27.77-22.22,27.77s-22.22-12.43-22.22-27.77S244,235.8,256.31,235.8,278.53,248.24,278.53,263.58Z" transform="translate(-106.01 -122)"/><path class="cls-3" d="M296.2,219.63A17.17,17.17,0,1,1,279,202.47,17.17,17.17,0,0,1,296.2,219.63Z" transform="translate(-106.01 -122)"/><path class="cls-3" d="M250.75,219.63a17.17,17.17,0,1,1-17.16-17.16A17.16,17.16,0,0,1,250.75,219.63Z" transform="translate(-106.01 -122)"/><circle class="cls-3" cx="203.53" cy="249.19" r="14.39" transform="translate(-181.05 288.18) rotate(-80.78)"/><path class="cls-3" d="M323.48,249.19a14.39,14.39,0,1,1-14.39-14.39A14.39,14.39,0,0,1,323.48,249.19Z" transform="translate(-106.01 -122)"/></g></svg>