<svg xmlns="http://www.w3.org/2000/svg" viewBox="0 0 315.08 275.9"><title>Element 3</title><g id="Ebene_2" data-name="Ebene 2"><g id="Layer_7" data-name="Layer 7"><path d="M307.58,83.43A76.59,76.59,0,0,0,157.35,63,76.59,76.59,0,1,0,35.07,144.21c.6.79,1.24,1.6,1.91,2.39l88.07,104.68c19.41,23.06,50.81,22.79,69.81-.61l86.23-106.2a59.93,59.93,0,0,0,5.09-7.29A76.28,76.28,0,0,0,307.58,83.43Z" fill="none" stroke="#27abbb" stroke-miterlimit="10" stroke-width="15"/><path d="M202.49,165.5a22,22,0,0,1-22,22h-45a22,22,0,0,1-22-22h0a22,22,0,0,1,22-22h45a22,22,0,0,1,22,22Z" fill="#27abbb"/><path d="M180,149.08c0,15.34-10,27.77-22.22,27.77s-22.22-12.43-22.22-27.77,9.95-27.78,22.22-27.78S180,133.74,180,149.08Z" fill="#27abbb"/><path d="M197.69,105.13A17.17,17.17,0,1,1,180.52,88,17.17,17.17,0,0,1,197.69,105.13Z" fill="#27abbb"/><path d="M152.24,105.13A17.17,17.17,0,1,1,135.08,88,17.16,17.16,0,0,1,152.24,105.13Z" fill="#27abbb"/><circle cx="105.02" cy="134.69" r="14.39" transform="translate(-44.75 216.78) rotate(-80.78)" fill="#27abbb"/><path d="M225,134.69a14.39,14.39,0,1,1-14.39-14.39A14.39,14.39,0,0,1,225,134.69Z" fill="#27abbb"/></g></g></svg>