<svg xmlns="http://www.w3.org/2000/svg" viewBox="0 0 318.19 317.54"><title>SearchEmptyPrimary</title><g id="Layer_7" data-name="Layer 7"><path d="M296,337l70,70a29,29,0,1,0,41-41l-70-70Z" transform="translate(-97.35 -98)" fill="#27abbb"/><circle cx="234.58" cy="235.22" r="127.22" transform="translate(-151.75 301.07) rotate(-74.63)" fill="none" stroke="#27abbb" stroke-miterlimit="10" stroke-width="20"/><path d="M278,261a21.42,21.42,0,0,1-21.44,21.3h-44A21.56,21.56,0,0,1,191,261v-.13c0-11.76,10-20.82,21.75-20.82h43.66c11.77,0,21.59,9.06,21.59,20.82Z" transform="translate(-97.35 -98)" fill="#27abbb"/><path d="M255.54,245.05c0,14.85-9.63,26.89-21.51,26.89s-21.52-12-21.52-26.89,9.64-26.89,21.52-26.89S255.54,230.2,255.54,245.05Z" transform="translate(-97.35 -98)" fill="#27abbb"/><path d="M272.64,202.51A16.62,16.62,0,1,1,256,185.89,16.62,16.62,0,0,1,272.64,202.51Z" transform="translate(-97.35 -98)" fill="#27abbb"/><path d="M228.65,202.51A16.62,16.62,0,1,1,212,185.89,16.62,16.62,0,0,1,228.65,202.51Z" transform="translate(-97.35 -98)" fill="#27abbb"/><path d="M196.86,231.12a13.93,13.93,0,1,1-13.93-13.93A13.93,13.93,0,0,1,196.86,231.12Z" transform="translate(-97.35 -98)" fill="#27abbb"/><path d="M299.05,231.12a13.93,13.93,0,1,1-13.93-13.93A13.93,13.93,0,0,1,299.05,231.12Z" transform="translate(-97.35 -98)" fill="#27abbb"/></g></svg>