<svg xmlns="http://www.w3.org/2000/svg" xmlns:xlink="http://www.w3.org/1999/xlink" width="176.647" height="192.019" viewBox="0 0 176.647 192.019"><defs><linearGradient id="a" x1="0.5" y1="-0.191" x2="0.5" y2="0.961" gradientUnits="objectBoundingBox"><stop offset="0" stop-color="#31d3d3"/><stop offset="1" stop-color="#083776"/></linearGradient></defs><g transform="translate(-120.753 -196.027)"><path d="M1013,931.246a.837.837,0,0,1,.029-.143l2.7-8.782c.124-.416.641-.612,1.157-.612a1.152,1.152,0,0,1,1.176.612l2.692,8.782a.634.634,0,0,1,.029.143c0,.43-.655.751-1.143.751-.311,0-.545-.1-.617-.363l-.531-1.855h-3.2l-.531,1.855c-.067.268-.306.363-.612.363C1013.636,932,1013,931.691,1013,931.246Zm5.1-2.868-1.214-4.3-1.214,4.3Z" transform="translate(-878.532 -544.037)" fill="#26aabb"/><path d="M1034.505,921.89c1.845,0,3.284.865,3.284,3.2v3.825c0,2.333-1.434,3.2-3.284,3.2h-2.472c-.478,0-.794-.263-.794-.559v-9.083c0-.292.32-.559.794-.559Zm-1.434,1.592V930.5h1.434c.923,0,1.468-.516,1.468-1.606v-3.825c0-1.09-.545-1.606-1.468-1.606Z" transform="translate(-888.052 -544.137)" fill="#26aabb"/><path d="M1048,928.984v-3.9c0-2.333,1.434-3.2,3.265-3.2s3.28.865,3.28,3.2v3.9c0,2.333-1.434,3.2-3.28,3.2S1048,931.318,1048,928.984Zm4.733-3.9c0-1.1-.56-1.606-1.468-1.606s-1.434.478-1.434,1.606v3.9c0,1.1.531,1.606,1.434,1.606s1.468-.5,1.468-1.606Z" transform="translate(-896.8 -544.137)" fill="#26aabb"/><path d="M1064.89,922.445a.617.617,0,0,1,.684-.559h2.806a2.843,2.843,0,0,1,3.17,3.141v.086c0,2.29-1.434,3.17-3.284,3.17H1066.7V931.5c0,.378-.478.574-.908.574s-.9-.2-.9-.574Zm1.812,1.033v3.38h1.587c.908,0,1.468-.516,1.468-1.606v-.167c0-1.09-.559-1.606-1.468-1.606Z" transform="translate(-905.615 -544.133)" fill="#26aabb"/><path d="M1086.254,921.89c.392,0,.573.421.573.813s-.21.822-.573.822H1084.2V931.5c0,.378-.478.574-.908.574s-.908-.2-.908-.574v-7.979h-2.008c-.363,0-.574-.378-.574-.822s.182-.813.574-.813Z" transform="translate(-913.397 -544.137)" fill="#26aabb"/><path d="M1100.93,931.258a.821.821,0,0,1,.029-.143l2.7-8.782c.124-.416.641-.612,1.157-.612s1.047.2,1.171.612l2.7,8.782a.619.619,0,0,1,.029.143c0,.43-.66.751-1.147.751-.306,0-.545-.1-.612-.363l-.531-1.855h-3.2l-.531,1.855c-.071.268-.306.363-.617.363C1101.585,932.008,1100.93,931.7,1100.93,931.258Zm5.1-2.868-1.214-4.3-1.214,4.3Z" transform="translate(-924.426 -544.048)" fill="#26aabb"/><path d="M1125.06,922.464c0-.378.387-.574.794-.574h4.871c.392,0,.559.406.559.784s-.2.808-.559.808h-3.853v2.792h2.137c.363,0,.559.349.559.727s-.167.7-.559.7h-2.137v3.825c0,.378-.478.574-.908.574s-.9-.2-.9-.574Z" transform="translate(-937.02 -544.137)" fill="#26aabb"/><path d="M1139.89,922.449a.568.568,0,0,1,.588-.559h2.763c1.831,0,3.308.7,3.308,2.921a2.621,2.621,0,0,1-1.826,2.792l1.826,3.39a.381.381,0,0,1,.072.225,1.176,1.176,0,0,1-1.128.956.712.712,0,0,1-.631-.435l-1.984-3.853h-1.171V931.5c0,.378-.445.574-.908.574s-.908-.2-.908-.574Zm1.817,1.033v2.974h1.535a1.3,1.3,0,0,0,1.5-1.477,1.316,1.316,0,0,0-1.5-1.5Z" transform="translate(-944.76 -544.137)" fill="#26aabb"/><path d="M1156.54,922.449c0-.392.449-.559.908-.559s.908.167.908.559v9.083c0,.378-.478.574-.908.574s-.908-.2-.908-.574Z" transform="translate(-953.45 -544.137)" fill="#26aabb"/><path d="M1165.662,926.274h2.122c.363,0,.574.349.574.727a.631.631,0,0,1-.574.7h-2.122V930.5h3.954c.363,0,.569.378.569.813s-.182.779-.569.779h-4.972c-.406,0-.794-.2-.794-.574v-9.059c0-.378.387-.574.794-.574h4.972c.387,0,.569.406.569.784s-.206.808-.569.808h-3.954Z" transform="translate(-957.265 -544.137)" fill="#26aabb"/><path d="M1184.144,931.5l-3-5.613V931.5c0,.378-.478.574-.908.574s-.9-.2-.9-.574v-9.04c0-.392.445-.574.9-.574.66,0,.923.143,1.358.956l2.692,5.206v-5.6c0-.392.449-.559.908-.559s.908.167.908.559v9.083c0,.378-.478.574-.908.574a1.09,1.09,0,0,1-1.047-.6Z" transform="translate(-965.345 -544.137)" fill="#26aabb"/><path d="M1200.265,921.89c1.845,0,3.28.865,3.28,3.2v3.825c0,2.333-1.434,3.2-3.28,3.2h-2.472c-.478,0-.794-.263-.794-.559v-9.083c0-.292.32-.559.794-.559Zm-1.434,1.592V930.5h1.434c.923,0,1.468-.516,1.468-1.606v-3.825c0-1.09-.545-1.606-1.468-1.606Z" transform="translate(-974.567 -544.137)" fill="#26aabb"/><path d="M1219.759,922.464c0-.378.392-.574.794-.574h4.876c.392,0,.559.406.559.784s-.2.808-.559.808h-3.853v2.792h2.113c.363,0,.559.349.559.727s-.167.7-.559.7h-2.132v3.825c0,.378-.478.574-.908.574s-.908-.2-.908-.574Z" transform="translate(-986.436 -544.137)" fill="#26aabb"/><path d="M1234.15,928.984v-3.9c0-2.333,1.434-3.2,3.265-3.2s3.284.865,3.284,3.2v3.9c0,2.333-1.434,3.2-3.284,3.2S1234.15,931.318,1234.15,928.984Zm4.733-3.9c0-1.1-.559-1.606-1.468-1.606s-1.434.478-1.434,1.606v3.9c0,1.1.531,1.606,1.434,1.606s1.468-.5,1.468-1.606Z" transform="translate(-993.957 -544.137)" fill="#26aabb"/><path d="M1251.09,922.449a.569.569,0,0,1,.588-.559h2.763c1.831,0,3.308.7,3.308,2.921a2.621,2.621,0,0,1-1.826,2.792l1.826,3.39a.383.383,0,0,1,.072.225,1.176,1.176,0,0,1-1.133.956.712.712,0,0,1-.626-.435l-1.984-3.853h-1.171V931.5c0,.378-.449.574-.908.574s-.908-.2-.908-.574Zm1.817,1.033v2.974h1.535a1.3,1.3,0,0,0,1.5-1.477,1.316,1.316,0,0,0-1.5-1.5Z" transform="translate(-1002.798 -544.137)" fill="#26aabb"/><path d="M1274.378,932.086c-.406,0-.8-.2-.8-.574v-9.083c0-.392.449-.559.908-.559s.908.167.908.559v8.056h3.4c.363,0,.545.392.545.8s-.182.794-.545.794Z" transform="translate(-1014.536 -544.126)" fill="#26aabb"/><path d="M1287.72,922.449c0-.392.445-.559.908-.559s.908.167.908.559v9.083c0,.378-.478.574-.908.574s-.908-.2-.908-.574Z" transform="translate(-1021.916 -544.137)" fill="#26aabb"/><path d="M1295,922.464c0-.378.392-.574.8-.574h4.871c.392,0,.559.406.559.784s-.2.808-.559.808h-3.853v2.792h2.137c.359,0,.554.349.554.727s-.167.7-.554.7h-2.137v3.825c0,.378-.478.574-.908.574s-.908-.2-.908-.574Z" transform="translate(-1025.716 -544.137)" fill="#26aabb"/><path d="M1311.677,926.274h2.123c.358,0,.569.349.569.727a.631.631,0,0,1-.569.7h-2.123V930.5h3.949c.364,0,.574.378.574.813s-.182.779-.574.779h-4.972c-.4,0-.794-.2-.794-.574v-9.059c0-.378.392-.574.794-.574h4.972c.392,0,.574.406.574.784s-.21.808-.574.808h-3.949Z" transform="translate(-1033.472 -544.137)" fill="#26aabb"/><path d="M983.56,864.97V815.778l3.346-.354c8.706-.929,14.648,2.77,17.65,8.081a17.165,17.165,0,0,1,2.209,7.7,18.438,18.438,0,0,1-15.733,19.132l.024,14.653Zm7.448-22.831a10.945,10.945,0,0,0,7.53-6.259,9.9,9.9,0,0,0,.751-4.269,8.49,8.49,0,0,0-8.276-8.25Z" transform="translate(-862.807 -492.706)" fill="#0a2e5f"/><path d="M1029.3,862.322l6.469-40.4.511-3.16h11.861l.665,2.9,9.365,40.684-7.291,1.683-3.49-15.155-8.371-.043-2.343,14.667Zm16.388-20.92-3.222-14.027-2.257,14.008Z" transform="translate(-887.226 -490.671)" fill="#0a2e5f"/><path d="M1101.749,823.842l.617,32.159,6.344-19.407,6.693-.07,5.785,19.432.555-32.616,7.42.85-1.745,42.449h-11.13l-4.618-16.977-5.259,16.9h-11.2l-.9-42.29Z" transform="translate(-922.908 -494.687)" fill="#0a2e5f"/><path d="M1174.694,816.7l21.847-.719,6.111-.188-2.829,5.41-16.3,31.047,14.272.256-.124,7.15-20.052-.362-5.795-.105,2.687-5.117,16.139-30.754-15.718.508Z" transform="translate(-965.109 -487.701)" fill="#0a2e5f"/><path d="M1253.293,819.28l-2.056,44.733-7.468-.311,2.08-44.752Z" transform="translate(-1005.77 -491.461)" fill="#0a2e5f"/><path d="M1286.427,847.6l-9.719-1.1-.775,9.9,16.857-.44.177,7.467-20.786.531-3.911.086.11-3.911.956-36.625.086-3.643h23.1v7.487h-15.815l-.617,10.424,10.336-1.735Z" transform="translate(-1018.295 -491.858)" fill="#0a2e5f"/><path d="M1332.959,848.093c-1.214,4.221-.818,6.626.263,7.711a3,3,0,0,0,2.39.708,4.231,4.231,0,0,0,2.782-1.348c.775-.841,1.038-2.19.22-3.911a29.827,29.827,0,0,0-3.38-5.211,41.017,41.017,0,0,0-4.948-5.3c-7.73-6.827-6.894-13.386-3.136-17.689a12.779,12.779,0,0,1,5.918-3.753,11.168,11.168,0,0,1,7,.043c4.781,1.7,7.974,6.736,4.575,16.254l-7.047-2.519c1.544-4.35,1.08-6.3-.048-6.693a3.629,3.629,0,0,0-2.319.067,5.26,5.26,0,0,0-2.472,1.544c-1.238,1.434-1.152,3.93,2.472,7.114a51.065,51.065,0,0,1,5.875,6.3,37.168,37.168,0,0,1,4.221,6.626c2.391,4.967,1.257,9.232-1.434,12.148a11.95,11.95,0,0,1-7.649,3.734,10.236,10.236,0,0,1-8.371-2.868c-2.825-2.868-4.24-7.73-2.166-15.021Z" transform="translate(-1049.238 -491.268)" fill="#0a2e5f"/><path d="M1156.512,664.157,1132.8,640.449a23.9,23.9,0,0,0-33.8,0L1075.3,664.157a30.453,30.453,0,0,0-1.161,41.889c9.306,10.377,31.238,16.74,41.768,10.22,1.566-.969-1.448-1.1,0,0,9.393,7.125,32.3.337,41.768-10.22A30.453,30.453,0,0,0,1156.512,664.157Zm-54.926,21.37a8.5,8.5,0,1,1,12.024-12.023,3.485,3.485,0,0,0,4.924,0,8.5,8.5,0,1,1,12.024,12.023c-5.989,5.988-15.142,14.149-14.653,14.639Z" transform="translate(-907.659 -400.425)" fill="url(#a)"/><path d="M1197.609,602.382h0c-7.5,0-13.929-6.623-15.26-15.728s2.811-18.076,9.839-21.31,14.925.2,18.753,8.158,2.488,18.151-3.181,24.209a13.917,13.917,0,0,1-10.149,4.67Z" transform="translate(-968.075 -368.073)" fill="url(#a)"/><path d="M1108.737,602.306h0a8.909,8.909,0,0,1-1.119-.047c-8.534-.77-14.95-9.917-14.342-20.444.6-9.988,7.336-17.721,15.456-17.755a8.916,8.916,0,0,1,1.119.047c8.533.77,14.95,9.917,14.342,20.444C1123.587,594.537,1116.856,602.269,1108.737,602.306Z" transform="translate(-921.695 -368.033)" fill="url(#a)"/><path d="M1044.492,661.91h0c-6.888.005-12.79-6.071-14.016-14.427s2.577-16.6,9.03-19.566,13.7.183,17.219,7.487,2.284,16.662-2.922,22.222A12.776,12.776,0,0,1,1044.492,661.91Z" transform="translate(-885.788 -400.622)" fill="url(#a)"/><path d="M1044.492,661.91h0c-6.888.005-12.79-6.071-14.016-14.427s2.577-16.6,9.03-19.566,13.7.183,17.219,7.487,2.284,16.662-2.922,22.222A12.776,12.776,0,0,1,1044.492,661.91Z" transform="translate(-787.486 -400.622)" fill="url(#a)"/></g></svg>